<svg width="19" height="18" viewBox="0 0 19 18" fill="none" xmlns="http://www.w3.org/2000/svg">
<path d="M5.39474 3H13.6053C14.1078 3 14.5897 3.19962 14.945 3.55496C15.3004 3.91029 15.5 4.39222 15.5 4.89474V10.5789C15.5 11.0815 15.3004 11.5634 14.945 11.9187C14.5897 12.2741 14.1078 12.4737 13.6053 12.4737H10.7063L8.36947 14.8168C8.25579 14.9305 8.09789 15 7.92105 15C7.75355 15 7.5929 14.9335 7.47446 14.815C7.35602 14.6966 7.28947 14.5359 7.28947 14.3684V12.4737H5.39474C4.89222 12.4737 4.41029 12.2741 4.05496 11.9187C3.69962 11.5634 3.5 11.0815 3.5 10.5789V4.89474C3.5 4.39222 3.69962 3.91029 4.05496 3.55496C4.41029 3.19962 4.89222 3 5.39474 3ZM13.6053 3.63158H5.39474C5.05973 3.63158 4.73844 3.76466 4.50155 4.00155C4.26466 4.23844 4.13158 4.55973 4.13158 4.89474V10.5789C4.13158 10.914 4.26466 11.2352 4.50155 11.4721C4.73844 11.709 5.05973 11.8421 5.39474 11.8421H7.92105V14.3684L10.4474 11.8421H13.6053C13.9403 11.8421 14.2616 11.709 14.4985 11.4721C14.7353 11.2352 14.8684 10.914 14.8684 10.5789V4.89474C14.8684 4.55973 14.7353 4.23844 14.4985 4.00155C14.2616 3.76466 13.9403 3.63158 13.6053 3.63158Z" fill="#4A4A4A"/>
</svg>
