<svg width="12" height="10" viewBox="0 0 12 10" fill="none" xmlns="http://www.w3.org/2000/svg">
<mask id="path-1-inside-1_1_578" fill="white">
<path d="M7.55425 3.85714L7.13139 3.78686C7.12119 3.84825 7.12447 3.91113 7.14103 3.97112C7.15758 4.03112 7.187 4.08679 7.22724 4.13426C7.26748 4.18174 7.31758 4.21988 7.37405 4.24603C7.43052 4.27219 7.49202 4.28573 7.55425 4.28571V3.85714ZM1.26854 3.85714V3.42857C1.15487 3.42857 1.04586 3.47372 0.965491 3.5541C0.885119 3.63447 0.839966 3.74348 0.839966 3.85714H1.26854ZM2.41139 10H8.90282V9.14286H2.41139V10ZM9.58854 3.42857H7.55425V4.28571H9.58854V3.42857ZM7.97711 3.92743L8.43768 1.16457L7.59196 1.02343L7.13139 3.78686L7.97711 3.92743ZM7.45139 0H7.32911V0.857143H7.45082L7.45139 0ZM5.54511 0.954286L4.10854 3.11029L4.82168 3.58571L6.25882 1.42971L5.54511 0.954286ZM3.51425 3.42857H1.26854V4.28571H3.51425V3.42857ZM0.839966 3.85714V8.42857H1.69711V3.85714H0.839966ZM10.444 8.73714L11.1297 5.30857L10.2897 5.14L9.60396 8.56857L10.444 8.73657M4.10854 3.11029C4.04334 3.20816 3.95498 3.28785 3.85131 3.34338C3.74763 3.3989 3.63186 3.42797 3.51425 3.428V4.28514C4.03997 4.28514 4.53025 4.02286 4.82168 3.58571L4.10854 3.11029ZM8.43768 1.16457C8.46158 1.02131 8.45399 0.874564 8.41543 0.734535C8.37688 0.594505 8.30828 0.464555 8.21442 0.353722C8.12055 0.242889 8.00367 0.153832 7.8719 0.0927466C7.74013 0.0316607 7.59663 1.15398e-05 7.45139 0L7.45082 0.857143C7.47154 0.857194 7.49256 0.861748 7.51134 0.870491C7.53012 0.879233 7.54677 0.891954 7.56014 0.907773C7.57351 0.923591 7.58328 0.942128 7.58878 0.962098C7.59427 0.982069 7.59536 1.003 7.59196 1.02343L8.43768 1.16457ZM9.58854 4.28571C10.04 4.28571 10.3771 4.69829 10.2891 5.14L11.1297 5.308C11.1752 5.08001 11.1697 4.84475 11.1133 4.61919C11.057 4.39362 10.9513 4.18337 10.8039 4.00358C10.6564 3.8238 10.471 3.67897 10.2608 3.57954C10.0506 3.4801 9.82103 3.42854 9.58854 3.42857V4.28571ZM8.90282 10C9.26608 10.0001 9.61815 9.87429 9.89913 9.64405C10.1801 9.41381 10.3726 9.09333 10.444 8.73714L9.60396 8.56857C9.57157 8.73063 9.48399 8.87644 9.35614 8.98116C9.22829 9.08588 9.06808 9.14302 8.90282 9.14286V10ZM7.32911 0C6.97635 2.56275e-05 6.62905 0.0871402 6.31803 0.253612C6.00702 0.420083 5.74192 0.660762 5.54625 0.954286L6.25882 1.42971C6.37628 1.25352 6.53543 1.10906 6.72214 1.00917C6.90886 0.909288 7.11735 0.857064 7.32911 0.857143V0ZM2.41139 9.14286C2.01711 9.14286 1.69711 8.82286 1.69711 8.42857H0.839966C0.839966 8.84534 1.00553 9.24504 1.30023 9.53974C1.59493 9.83444 1.99463 10 2.41139 10V9.14286Z"/>
</mask>
<path d="M7.55425 3.85714L7.13139 3.78686C7.12119 3.84825 7.12447 3.91113 7.14103 3.97112C7.15758 4.03112 7.187 4.08679 7.22724 4.13426C7.26748 4.18174 7.31758 4.21988 7.37405 4.24603C7.43052 4.27219 7.49202 4.28573 7.55425 4.28571V3.85714ZM1.26854 3.85714V3.42857C1.15487 3.42857 1.04586 3.47372 0.965491 3.5541C0.885119 3.63447 0.839966 3.74348 0.839966 3.85714H1.26854ZM2.41139 10H8.90282V9.14286H2.41139V10ZM9.58854 3.42857H7.55425V4.28571H9.58854V3.42857ZM7.97711 3.92743L8.43768 1.16457L7.59196 1.02343L7.13139 3.78686L7.97711 3.92743ZM7.45139 0H7.32911V0.857143H7.45082L7.45139 0ZM5.54511 0.954286L4.10854 3.11029L4.82168 3.58571L6.25882 1.42971L5.54511 0.954286ZM3.51425 3.42857H1.26854V4.28571H3.51425V3.42857ZM0.839966 3.85714V8.42857H1.69711V3.85714H0.839966ZM10.444 8.73714L11.1297 5.30857L10.2897 5.14L9.60396 8.56857L10.444 8.73657M4.10854 3.11029C4.04334 3.20816 3.95498 3.28785 3.85131 3.34338C3.74763 3.3989 3.63186 3.42797 3.51425 3.428V4.28514C4.03997 4.28514 4.53025 4.02286 4.82168 3.58571L4.10854 3.11029ZM8.43768 1.16457C8.46158 1.02131 8.45399 0.874564 8.41543 0.734535C8.37688 0.594505 8.30828 0.464555 8.21442 0.353722C8.12055 0.242889 8.00367 0.153832 7.8719 0.0927466C7.74013 0.0316607 7.59663 1.15398e-05 7.45139 0L7.45082 0.857143C7.47154 0.857194 7.49256 0.861748 7.51134 0.870491C7.53012 0.879233 7.54677 0.891954 7.56014 0.907773C7.57351 0.923591 7.58328 0.942128 7.58878 0.962098C7.59427 0.982069 7.59536 1.003 7.59196 1.02343L8.43768 1.16457ZM9.58854 4.28571C10.04 4.28571 10.3771 4.69829 10.2891 5.14L11.1297 5.308C11.1752 5.08001 11.1697 4.84475 11.1133 4.61919C11.057 4.39362 10.9513 4.18337 10.8039 4.00358C10.6564 3.8238 10.471 3.67897 10.2608 3.57954C10.0506 3.4801 9.82103 3.42854 9.58854 3.42857V4.28571ZM8.90282 10C9.26608 10.0001 9.61815 9.87429 9.89913 9.64405C10.1801 9.41381 10.3726 9.09333 10.444 8.73714L9.60396 8.56857C9.57157 8.73063 9.48399 8.87644 9.35614 8.98116C9.22829 9.08588 9.06808 9.14302 8.90282 9.14286V10ZM7.32911 0C6.97635 2.56275e-05 6.62905 0.0871402 6.31803 0.253612C6.00702 0.420083 5.74192 0.660762 5.54625 0.954286L6.25882 1.42971C6.37628 1.25352 6.53543 1.10906 6.72214 1.00917C6.90886 0.909288 7.11735 0.857064 7.32911 0.857143V0ZM2.41139 9.14286C2.01711 9.14286 1.69711 8.82286 1.69711 8.42857H0.839966C0.839966 8.84534 1.00553 9.24504 1.30023 9.53974C1.59493 9.83444 1.99463 10 2.41139 10V9.14286Z" fill="#161616"/>
<path d="M10.6116 5.71429L11.0316 5.79829L11.2277 4.81771L10.8077 4.73371L10.6116 5.71429ZM9.40282 10V9.14286H8.40282V10H9.40282ZM1.91139 9.14286V10H2.91139V9.14286H1.91139ZM10.0885 4.28571V3.42857H9.08854V4.28571H10.0885ZM8.51999 0.671393L7.67427 0.53025L7.50966 1.51661L8.35537 1.65775L8.51999 0.671393ZM6.82911 0V0.857143H7.82911V0H6.82911ZM7.95082 0.857476L7.95139 0.00033315L6.95139 -0.00033315L6.95082 0.85681L7.95082 0.857476ZM3.83119 3.52631L4.54433 4.00174L5.09903 3.16969L4.38589 2.69426L3.83119 3.52631ZM0.839966 8.92857H1.69711V7.92857H0.839966V8.92857ZM7.55425 3.85714H8.55425V3.00964L7.71822 2.87068L7.55425 3.85714ZM7.13139 3.78686L6.145 3.62246L6.14493 3.62286L7.13139 3.78686ZM7.14103 3.97112L6.17704 4.23708L7.14103 3.97112ZM1.26854 3.85714V4.85714H2.26854V3.85714H1.26854ZM11.1297 5.308L10.9337 6.28861L11.9143 6.48459L12.1103 5.504L11.1297 5.308ZM8.90282 10L8.90302 9H8.90282V10ZM8.90282 9.14286L8.90382 8.14286H8.90282V9.14286ZM9.58854 3.42857V4.42857H9.58866L9.58854 3.42857ZM7.55425 3.42857V2.42857H6.55425V3.42857H7.55425ZM7.97711 3.92743L7.81314 4.91389L8.79914 5.07778L8.9635 4.09186L7.97711 3.92743ZM8.43768 1.16457L7.45131 1L7.45129 1.00014L8.43768 1.16457ZM7.59196 1.02343L8.57836 1.18783L8.57842 1.18743L7.59196 1.02343ZM7.45139 0L7.45147 -1H7.45139V0ZM7.32911 0V-1H7.32903L7.32911 0ZM7.32911 0.857143L7.32874 1.85714H7.32911V0.857143ZM7.45082 0.857143L7.45328 -0.142857H7.45082V0.857143ZM5.54511 0.954286L6.0995 0.122031L5.26735 -0.432293L4.71292 0.399789L5.54511 0.954286ZM4.10854 3.11029L3.27635 2.55579L3.27629 2.55589L4.10854 3.11029ZM4.82168 3.58571L5.65373 4.14041L5.65376 4.14036L4.82168 3.58571ZM3.51425 3.42857H4.51425V2.42857H3.51425V3.42857ZM1.26854 4.28571H0.268537V5.28571H1.26854V4.28571ZM3.51425 4.28571V5.28571H4.51425V4.28571H3.51425ZM0.839966 8.42857H-0.160034H0.839966ZM1.69711 3.85714H2.69711V2.85714H1.69711V3.85714ZM10.444 8.73714L11.4245 8.93351L11.4245 8.93326L10.444 8.73714ZM11.1297 5.30857L12.1103 5.50469L12.3062 4.52475L11.3264 4.32812L11.1297 5.30857ZM10.2897 5.14L10.4864 4.15955L9.50534 3.96266L9.3091 4.94388L10.2897 5.14ZM9.60396 8.56857L8.62338 8.37246L8.62336 8.37257L9.60396 8.56857ZM3.51425 3.428L3.514 2.428L2.51425 2.42825V3.428H3.51425ZM3.51425 4.28514H2.51425V5.28514H3.51425V4.28514ZM10.2891 5.14L9.30838 4.94462L9.11312 5.92474L10.0931 6.12061L10.2891 5.14ZM5.54625 0.954286L4.71418 0.399619L4.15974 1.23135L4.99124 1.78613L5.54625 0.954286ZM7.71822 2.87068L7.29536 2.80039L6.96743 4.77332L7.39028 4.84361L7.71822 2.87068ZM6.14493 3.62286C6.11091 3.8275 6.12187 4.03709 6.17704 4.23708L8.10501 3.70517C8.12708 3.78517 8.13146 3.869 8.11785 3.95086L6.14493 3.62286ZM6.17704 4.23708C6.23221 4.43706 6.33028 4.62262 6.46442 4.78087L7.99006 3.48765C8.04371 3.55095 8.08294 3.62517 8.10501 3.70517L6.17704 4.23708ZM6.46442 4.78087C6.59855 4.93912 6.76555 5.06625 6.95379 5.15344L7.79431 3.33863C7.86961 3.3735 7.93641 3.42436 7.99006 3.48765L6.46442 4.78087ZM6.95379 5.15344C7.14204 5.24062 7.34701 5.28576 7.55446 5.28571L7.55404 3.28571C7.63702 3.2857 7.71901 3.30375 7.79431 3.33863L6.95379 5.15344ZM8.55425 4.28571V3.85714H6.55425V4.28571H8.55425ZM2.26854 3.85714V3.42857H0.268537V3.85714H2.26854ZM1.26854 2.42857C0.889655 2.42857 0.526293 2.57908 0.258385 2.84699L1.6726 4.2612C1.56544 4.36837 1.42009 4.42857 1.26854 4.42857V2.42857ZM0.258385 2.84699C-0.00952435 3.1149 -0.160034 3.47826 -0.160034 3.85714H1.83997C1.83997 4.0087 1.77976 4.15404 1.6726 4.2612L0.258385 2.84699ZM0.839966 4.85714H1.26854V2.85714H0.839966V4.85714ZM2.41139 11H8.90282V9H2.41139V11ZM8.90282 8.14286H2.41139V10.1429H8.90282V8.14286ZM9.58854 2.42857H7.55425V4.42857H9.58854V2.42857ZM6.55425 3.42857V4.28571H8.55425V3.42857H6.55425ZM7.55425 5.28571H9.58854V3.28571H7.55425V5.28571ZM8.9635 4.09186L9.42407 1.329L7.45129 1.00014L6.99072 3.763L8.9635 4.09186ZM6.60557 0.85903L6.145 3.62246L8.11779 3.95126L8.57836 1.18783L6.60557 0.85903ZM6.96743 4.77332L7.81314 4.91389L8.14107 2.94096L7.29536 2.80039L6.96743 4.77332ZM7.45139 -1H7.32911V1H7.45139V-1ZM7.32911 1.85714H7.45082V-0.142857H7.32911V1.85714ZM4.71292 0.399789L3.27635 2.55579L4.94072 3.66478L6.37729 1.50878L4.71292 0.399789ZM5.65376 4.14036L7.09091 1.98436L5.42674 0.875065L3.9896 3.03106L5.65376 4.14036ZM6.81321 0.597459L6.0995 0.122031L4.99072 1.78654L5.70443 2.26197L6.81321 0.597459ZM3.51425 2.42857H1.26854V4.42857H3.51425V2.42857ZM0.268537 3.42857V4.28571H2.26854V3.42857H0.268537ZM1.26854 5.28571H3.51425V3.28571H1.26854V5.28571ZM4.51425 4.28571V3.42857H2.51425V4.28571H4.51425ZM-0.160034 3.85714V8.42857H1.83997V3.85714H-0.160034ZM2.69711 8.42857V3.85714H0.697109V8.42857H2.69711ZM1.69711 2.85714H0.839966V4.85714H1.69711V2.85714ZM11.4245 8.93326L12.1103 5.50469L10.1491 5.11246L9.46338 8.54103L11.4245 8.93326ZM11.3264 4.32812L10.4864 4.15955L10.0929 6.12045L10.9329 6.28902L11.3264 4.32812ZM9.3091 4.94388L8.62338 8.37246L10.5845 8.76469L11.2703 5.33612L9.3091 4.94388ZM9.40785 9.54915L10.2478 9.71715L10.6401 7.75599L9.80008 7.58799L9.40785 9.54915ZM3.27629 2.55589C3.30374 2.51467 3.33992 2.48288 3.37918 2.46185L4.32343 4.22491C4.57004 4.09283 4.78293 3.90166 4.94079 3.66469L3.27629 2.55589ZM3.37918 2.46185C3.42065 2.43964 3.46696 2.42801 3.514 2.428L3.5145 4.428C3.79675 4.42793 4.07462 4.35817 4.32343 4.22491L3.37918 2.46185ZM2.51425 3.428V4.28514H4.51425V3.428H2.51425ZM3.51425 5.28514C4.37406 5.28514 5.17669 4.85597 5.65373 4.14041L3.98963 3.03101C3.88381 3.18974 3.70587 3.28514 3.51425 3.28514V5.28514ZM9.42404 1.32914C9.47185 1.04263 9.45667 0.749131 9.37955 0.469069L7.45131 1L7.45131 1L9.42404 1.32914ZM9.37955 0.469069C9.30244 0.189011 9.16525 -0.0708889 8.97752 -0.292556L7.45131 1L9.37955 0.469069ZM8.97752 -0.292556C8.78979 -0.514223 8.55602 -0.692335 8.29248 -0.814507L7.45131 1V1L8.97752 -0.292556ZM8.29248 -0.814507C8.02894 -0.936679 7.74195 -0.999977 7.45147 -1L7.45131 1L7.45131 1L8.29248 -0.814507ZM7.44836 1.85714C7.32817 1.85684 7.20559 1.83121 7.08926 1.77705L7.93341 -0.036071C7.77953 -0.107712 7.6149 -0.142457 7.45328 -0.142854L7.44836 1.85714ZM7.08926 1.77705C6.9766 1.7246 6.87669 1.64827 6.79645 1.55336L8.32382 0.262183C8.21685 0.135635 8.08363 0.0338665 7.93341 -0.036071L7.08926 1.77705ZM6.79645 1.55336C6.71622 1.45845 6.65759 1.34723 6.62462 1.22741L8.55294 0.69679C8.50898 0.537026 8.4308 0.388731 8.32382 0.262183L6.79645 1.55336ZM6.62462 1.22741C6.59164 1.10759 6.58512 0.982024 6.6055 0.859426L8.57842 1.18743C8.6056 1.02397 8.5969 0.856553 8.55294 0.69679L6.62462 1.22741ZM9.58854 5.28571C9.40758 5.28571 9.27346 5.11988 9.30838 4.94462L11.2698 5.33538C11.4808 4.27669 10.6723 3.28571 9.58854 3.28571V5.28571ZM10.0931 6.12061L10.9337 6.28861L11.3257 4.32739L10.4851 4.15939L10.0931 6.12061ZM12.1103 5.504C12.1849 5.13093 12.1757 4.74596 12.0835 4.37685L10.1431 4.86152C10.1636 4.94355 10.1656 5.0291 10.1491 5.112L12.1103 5.504ZM12.0835 4.37685C11.9913 4.00774 11.8184 3.66369 11.5771 3.3695L10.0306 4.63767C10.0842 4.70304 10.1226 4.7795 10.1431 4.86152L12.0835 4.37685ZM11.5771 3.3695C11.3359 3.07531 11.0324 2.83832 10.6885 2.67561L9.83312 4.48347C9.90954 4.51963 9.97699 4.57229 10.0306 4.63767L11.5771 3.3695ZM10.6885 2.67561C10.3446 2.5129 9.96886 2.42852 9.58841 2.42857L9.58866 4.42857C9.6732 4.42856 9.7567 4.44731 9.83312 4.48347L10.6885 2.67561ZM8.90263 11C9.49705 11.0001 10.0732 10.7943 10.5329 10.4175L9.26531 8.87056C9.16314 8.95429 9.03511 9.00003 8.90302 9L8.90263 11ZM10.5329 10.4175C10.9927 10.0408 11.3078 9.51636 11.4245 8.93351L9.46343 8.54078C9.43749 8.67031 9.36748 8.78684 9.26531 8.87056L10.5329 10.4175ZM10.6407 7.75669L9.80072 7.58812L9.40721 9.54902L10.2472 9.7176L10.6407 7.75669ZM8.62336 8.37257C8.63632 8.30775 8.67135 8.24942 8.72249 8.20754L9.98979 9.75478C10.2966 9.50345 10.5068 9.15351 10.5846 8.76457L8.62336 8.37257ZM8.72249 8.20754C8.77363 8.16565 8.83771 8.14279 8.90382 8.14286L8.90183 10.1429C9.29846 10.1433 9.68295 10.0061 9.98979 9.75478L8.72249 8.20754ZM7.32903 -1C6.81165 -0.999962 6.30228 -0.872194 5.84612 -0.628036L6.78994 1.13526C6.95581 1.04647 7.14104 1.00001 7.32918 1L7.32903 -1ZM5.84612 -0.628036C5.38997 -0.383878 5.00115 -0.0308826 4.71418 0.399619L6.37832 1.50895C6.48268 1.35241 6.62407 1.22404 6.78994 1.13526L5.84612 -0.628036ZM4.99124 1.78613L5.70381 2.26156L6.81383 0.597869L6.10126 0.122441L4.99124 1.78613ZM7.09089 1.98438C7.117 1.94523 7.15236 1.91312 7.19385 1.89093L6.25043 0.127422C5.91849 0.304999 5.63555 0.561812 5.42675 0.875048L7.09089 1.98438ZM7.19385 1.89093C7.23535 1.86873 7.28168 1.85713 7.32874 1.85714L7.32948 -0.142857C6.95303 -0.142997 6.58237 -0.0501547 6.25043 0.127422L7.19385 1.89093ZM2.41139 8.14286C2.56939 8.14286 2.69711 8.27057 2.69711 8.42857H0.697109C0.697109 9.37514 1.46482 10.1429 2.41139 10.1429V8.14286ZM-0.160034 8.42857C-0.160034 9.11056 0.110883 9.76461 0.59312 10.2468L2.00733 8.83263C1.90017 8.72547 1.83997 8.58012 1.83997 8.42857H-0.160034ZM0.59312 10.2468C1.07536 10.7291 1.72941 11 2.41139 11V9C2.25984 9 2.1145 8.9398 2.00733 8.83263L0.59312 10.2468Z" fill="#161616" mask="url(#path-1-inside-1_1_578)"/>
<path d="M3.55426 3.85716V9.57145V3.85716Z" fill="#161616"/>
<path d="M3.55426 3.85716V9.57145" stroke="#161616" stroke-width="1.5"/>
</svg>
