<svg width="32" height="32" viewBox="0 0 32 32" fill="none" xmlns="http://www.w3.org/2000/svg">
<path d="M15.9983 27.7333C13.3949 27.7329 10.8656 26.8667 8.8085 25.2711C6.75143 23.6754 5.28346 21.441 4.63569 18.9195C3.98792 16.398 4.19714 13.7326 5.23041 11.3431C6.26368 8.95354 8.06232 6.9755 10.3432 5.72036C12.624 4.46523 15.2575 4.00429 17.829 4.41012C20.4006 4.81594 22.7642 6.06549 24.5476 7.96203C26.3311 9.85857 27.4331 12.2944 27.6803 14.886C27.9275 17.4776 27.3057 20.0779 25.9129 22.2773L27.7316 27.7333L22.2756 25.9146C20.3989 27.1059 18.2211 27.7369 15.9983 27.7333Z" fill="#FFD600" stroke="#06004D" stroke-width="1.5" stroke-linecap="round" stroke-linejoin="round"/>
</svg>
