<svg width="30" height="30" viewBox="0 0 30 30" fill="none" xmlns="http://www.w3.org/2000/svg">
<path d="M14.9984 26C12.5577 25.9996 10.1865 25.1876 8.25796 23.6916C6.32947 22.1957 4.95324 20.1009 4.34596 17.737C3.73867 15.3731 3.93481 12.8744 4.9035 10.6342C5.8722 8.39395 7.55842 6.53953 9.69671 5.36284C11.835 4.18615 14.3039 3.75402 16.7147 4.13449C19.1256 4.51495 21.3414 5.6864 23.0134 7.4644C24.6854 9.24241 25.7186 11.526 25.9503 13.9556C26.182 16.3853 25.5991 18.823 24.2934 20.885L25.9984 26L20.8834 24.295C19.1239 25.4118 17.0823 26.0033 14.9984 26Z" stroke="#161616" stroke-width="1.5" stroke-linecap="round" stroke-linejoin="round"/>
</svg>
