<svg width="30" height="30" viewBox="0 0 30 30" fill="none" xmlns="http://www.w3.org/2000/svg">
<path d="M14.9982 27C12.3357 26.9996 9.74886 26.1137 7.64505 24.4818C5.54123 22.8499 4.0399 20.5646 3.37741 17.9858C2.71491 15.407 2.92889 12.6811 3.98564 10.2373C5.04239 7.7934 6.88191 5.7704 9.21459 4.48674C11.5473 3.20308 14.2406 2.73166 16.8706 3.14671C19.5006 3.56177 21.9179 4.83971 23.7419 6.77935C25.5659 8.71899 26.693 11.2102 26.9458 13.8607C27.1986 16.5112 26.5627 19.1705 25.1382 21.42L26.9982 27L21.4182 25.14C19.4988 26.3583 17.2716 27.0036 14.9982 27Z" fill="#06004D"/>
</svg>
