<svg width="30" height="30" viewBox="0 0 30 30" fill="none" xmlns="http://www.w3.org/2000/svg">
<path d="M5 2H26V28L24.452 26.7231C23.9083 26.2744 23.2158 26.0277 22.4997 26.0277C21.7837 26.0277 21.0912 26.2744 20.5475 26.7231L18.9995 28L17.453 26.7231C16.9092 26.274 16.2164 26.0271 15.5 26.0271C14.7836 26.0271 14.0908 26.274 13.547 26.7231L12.0005 28L10.4525 26.7231C9.90879 26.2744 9.21633 26.0277 8.50025 26.0277C7.78417 26.0277 7.09171 26.2744 6.548 26.7231L5 28V2ZM20 7.77778H11H20ZM20 13.5556H11H20ZM20 19.3333H14H20Z" fill="#06004D"/>
<path d="M20 7.77778H11M20 13.5556H11M20 19.3333H14M5 2H26V28L24.452 26.7231C23.9083 26.2744 23.2158 26.0277 22.4997 26.0277C21.7837 26.0277 21.0912 26.2744 20.5475 26.7231L18.9995 28L17.453 26.7231C16.9092 26.274 16.2164 26.0271 15.5 26.0271C14.7836 26.0271 14.0908 26.274 13.547 26.7231L12.0005 28L10.4525 26.7231C9.90879 26.2744 9.21633 26.0277 8.50025 26.0277C7.78417 26.0277 7.09171 26.2744 6.548 26.7231L5 28V2Z" stroke="white" stroke-width="1.5" stroke-linecap="round" stroke-linejoin="round"/>
</svg>
