<svg width="32" height="32" viewBox="0 0 32 32" fill="none" xmlns="http://www.w3.org/2000/svg">
<path d="M6.39996 3.19995H26.6666V28.7999L25.1727 27.5427C24.648 27.1009 23.9797 26.858 23.2886 26.858C22.5975 26.858 21.9293 27.1009 21.4045 27.5427L19.9106 28.7999L18.4181 27.5427C17.8933 27.1005 17.2247 26.8574 16.5333 26.8574C15.8419 26.8574 15.1733 27.1005 14.6485 27.5427L13.156 28.7999L11.6621 27.5427C11.1373 27.1009 10.4691 26.858 9.77798 26.858C9.08691 26.858 8.41863 27.1009 7.89391 27.5427L6.39996 28.7999V3.19995ZM20.8762 8.88884H12.1904H20.8762ZM20.8762 14.5777H12.1904H20.8762ZM20.8762 20.2666H15.0857H20.8762Z" fill="#FFD600"/>
<path d="M20.8762 8.88884H12.1904M20.8762 14.5777H12.1904M20.8762 20.2666H15.0857M6.39996 3.19995H26.6666V28.7999L25.1727 27.5427C24.648 27.1009 23.9797 26.858 23.2886 26.858C22.5975 26.858 21.9293 27.1009 21.4045 27.5427L19.9106 28.7999L18.4181 27.5427C17.8933 27.1005 17.2247 26.8574 16.5333 26.8574C15.8419 26.8574 15.1733 27.1005 14.6485 27.5427L13.156 28.7999L11.6621 27.5427C11.1373 27.1009 10.4691 26.858 9.77798 26.858C9.08691 26.858 8.41863 27.1009 7.89391 27.5427L6.39996 28.7999V3.19995Z" stroke="#06004D" stroke-width="1.5" stroke-linecap="round" stroke-linejoin="round"/>
</svg>
