<svg width="30" height="30" viewBox="0 0 30 30" fill="none" xmlns="http://www.w3.org/2000/svg">
<path d="M19.5714 8.33333H11.4286M19.5714 13.6667H11.4286M19.5714 19H14.1429M6 3H25V27L23.5994 25.8213C23.1075 25.4071 22.481 25.1794 21.8331 25.1794C21.1852 25.1794 20.5587 25.4071 20.0668 25.8213L18.6662 27L17.267 25.8213C16.775 25.4068 16.1482 25.1789 15.5 25.1789C14.8518 25.1789 14.225 25.4068 13.733 25.8213L12.3338 27L10.9332 25.8213C10.4413 25.4071 9.81477 25.1794 9.16689 25.1794C8.51901 25.1794 7.8925 25.4071 7.40057 25.8213L6 27V3Z" stroke="#161616" stroke-width="1.5" stroke-linecap="round" stroke-linejoin="round"/>
</svg>
