<svg width="30" height="30" viewBox="0 0 30 30" fill="none" xmlns="http://www.w3.org/2000/svg">
<path d="M28 26.4127V12.9206C28 12.6742 27.9435 12.4312 27.835 12.2108C27.7266 11.9904 27.5691 11.7986 27.375 11.6508L16.4375 3.31746C16.167 3.11139 15.8381 3 15.5 3C15.1619 3 14.833 3.11139 14.5625 3.31746L3.625 11.6508C3.43094 11.7986 3.27344 11.9904 3.16496 12.2108C3.05648 12.4312 3 12.6742 3 12.9206V26.4127C3 26.8337 3.16462 27.2374 3.45765 27.5351C3.75067 27.8328 4.1481 28 4.5625 28H10.8125C11.2269 28 11.6243 27.8328 11.9174 27.5351C12.2104 27.2374 12.375 26.8337 12.375 26.4127V21.6508C12.375 21.2298 12.5396 20.8261 12.8326 20.5284C13.1257 20.2307 13.5231 20.0635 13.9375 20.0635H17.0625C17.4769 20.0635 17.8743 20.2307 18.1674 20.5284C18.4604 20.8261 18.625 21.2298 18.625 21.6508V26.4127C18.625 26.8337 18.7896 27.2374 19.0826 27.5351C19.3757 27.8328 19.7731 28 20.1875 28H26.4375C26.8519 28 27.2493 27.8328 27.5424 27.5351C27.8354 27.2374 28 26.8337 28 26.4127Z" fill="#06004D"/>
</svg>
