<svg width="30" height="30" viewBox="0 0 30 30" fill="none" xmlns="http://www.w3.org/2000/svg">
<path d="M27 25.5397V13.127C27 12.9003 26.948 12.6767 26.8482 12.4739C26.7484 12.2711 26.6035 12.0948 26.425 11.9587L16.3625 4.29206C16.1137 4.10248 15.811 4 15.5 4C15.189 4 14.8863 4.10248 14.6375 4.29206L4.575 11.9587C4.39647 12.0948 4.25156 12.2711 4.15176 12.4739C4.05196 12.6767 4 12.9003 4 13.127V25.5397C4 25.927 4.15145 26.2984 4.42103 26.5723C4.69062 26.8461 5.05625 27 5.4375 27H11.1875C11.5687 27 11.9344 26.8461 12.204 26.5723C12.4735 26.2984 12.625 25.927 12.625 25.5397V21.1587C12.625 20.7714 12.7765 20.4 13.046 20.1261C13.3156 19.8523 13.6813 19.6984 14.0625 19.6984H16.9375C17.3187 19.6984 17.6844 19.8523 17.954 20.1261C18.2235 20.4 18.375 20.7714 18.375 21.1587V25.5397C18.375 25.927 18.5265 26.2984 18.796 26.5723C19.0656 26.8461 19.4313 27 19.8125 27H25.5625C25.9437 27 26.3094 26.8461 26.579 26.5723C26.8486 26.2984 27 25.927 27 25.5397Z" stroke="#161616" stroke-width="1.5" stroke-linecap="round" stroke-linejoin="round"/>
</svg>
