<svg width="18" height="18" viewBox="0 0 18 18" fill="none" xmlns="http://www.w3.org/2000/svg">
<path fill-rule="evenodd" clip-rule="evenodd" d="M10.7776 7.68204C10.764 7.63265 10.7613 7.58089 10.7697 7.53035L11.3386 4.11671C11.3471 4.06611 11.345 4.01428 11.3314 3.96484C11.3177 3.9154 11.2935 3.86953 11.2603 3.83043C11.2271 3.79132 11.1858 3.75992 11.1392 3.73841C11.0926 3.71691 11.0419 3.7058 10.9906 3.70588H10.8403V3H10.9906C11.1444 3.00005 11.2963 3.0336 11.4358 3.0983C11.5753 3.16301 11.699 3.25732 11.7984 3.37468C11.8978 3.49204 11.9704 3.62963 12.0112 3.77789C12.052 3.92614 12.06 4.08151 12.0346 4.23318L11.5342 7.23529H11.1177V7.58824L11.4657 7.64612L11.5342 7.23529H13.6306C13.8916 7.23545 14.15 7.29349 14.3859 7.40524C14.6217 7.51699 14.8299 7.67966 14.9953 7.88153C15.1607 8.0834 15.2793 8.31944 15.3425 8.57266C15.4057 8.82588 15.4126 9.08996 15.3615 9.34588L14.5144 13.5812C14.4344 13.9813 14.219 14.3414 13.9034 14.6001C13.5878 14.8587 13.1916 15.0001 12.7836 15H4.76477C4.53302 15 4.30355 14.9544 4.08944 14.8657C3.87534 14.777 3.6808 14.647 3.51693 14.4831C3.35306 14.3193 3.22308 14.1247 3.13439 13.9106C3.04571 13.6965 3.00006 13.467 3.00006 13.2353V7.58824C3.00006 7.49463 3.03725 7.40486 3.10344 7.33867C3.16962 7.27248 3.2594 7.23529 3.353 7.23529H6.12712C6.30143 7.23528 6.47303 7.19224 6.62671 7.10998C6.78039 7.02772 6.91138 6.9088 7.00806 6.76376L8.78406 4.10047C9.00969 3.76191 9.31474 3.48432 9.67345 3.29234C10.0317 3.10058 10.4325 3.00017 10.8389 3V3.70588C10.5484 3.70588 10.2624 3.77758 10.0063 3.91464C9.75015 4.05169 9.53181 4.24985 9.37065 4.49153L7.59536 7.15553C7.43419 7.39721 7.21586 7.59537 6.95973 7.73242C6.70361 7.86948 6.41761 7.94118 6.12712 7.94118H3.70594V13.2353C3.70594 13.5161 3.8175 13.7854 4.01607 13.984C4.21463 14.1826 4.48395 14.2941 4.76477 14.2941H12.7836C13.0286 14.2945 13.2662 14.2098 13.4558 14.0546C13.6454 13.8993 13.7746 13.6831 13.8226 13.4428L14.6697 9.20753C14.7004 9.05392 14.6959 8.89541 14.658 8.74343C14.62 8.59144 14.5488 8.44978 14.4495 8.32864C14.3502 8.20751 14.2252 8.10992 14.0836 8.04292C13.942 7.97592 13.7873 7.94117 13.6306 7.94118H11.1177C11.0665 7.94115 11.0159 7.92998 10.9694 7.90842C10.9229 7.88687 10.8817 7.85545 10.8486 7.81636C10.8154 7.77727 10.7912 7.73143 10.7776 7.68204Z" fill="#06004D"/>
<path d="M11.1177 7.23529V7.58824L11.4657 7.64612L11.5342 7.23529H11.1177Z" fill="#06004D"/>
<path d="M10.7776 7.68204C10.764 7.63265 10.7613 7.58089 10.7697 7.53035L11.3386 4.11671C11.3471 4.06611 11.345 4.01428 11.3314 3.96484C11.3177 3.9154 11.2935 3.86953 11.2603 3.83043C11.2271 3.79132 11.1858 3.75992 11.1392 3.73841C11.0926 3.71691 11.0419 3.7058 10.9906 3.70588H10.8403V3H10.8389V3.70588C10.5484 3.70588 10.2624 3.77758 10.0063 3.91464C9.75015 4.05169 9.53181 4.24985 9.37065 4.49153L7.59536 7.15553C7.43419 7.39721 7.21586 7.59537 6.95973 7.73242C6.70361 7.86948 6.41761 7.94118 6.12712 7.94118H3.70594V13.2353C3.70594 13.5161 3.8175 13.7854 4.01607 13.984C4.21463 14.1826 4.48395 14.2941 4.76477 14.2941H12.7836C13.0286 14.2945 13.2662 14.2098 13.4558 14.0546C13.6454 13.8993 13.7746 13.6831 13.8226 13.4428L14.6697 9.20753C14.7004 9.05392 14.6959 8.89541 14.658 8.74343C14.62 8.59144 14.5488 8.44978 14.4495 8.32864C14.3502 8.20751 14.2252 8.10992 14.0836 8.04292C13.942 7.97592 13.7873 7.94117 13.6306 7.94118H11.1177C11.0665 7.94115 11.0159 7.92998 10.9694 7.90842C10.9229 7.88687 10.8817 7.85545 10.8486 7.81636C10.8154 7.77727 10.7912 7.73143 10.7776 7.68204Z" fill="#06004D"/>
<path d="M6.17651 7.58823V14.647" stroke="white"/>
</svg>
