<svg width="18" height="18" viewBox="0 0 18 18" fill="none" xmlns="http://www.w3.org/2000/svg">
<path d="M11.0025 7.58824L10.6545 7.53035C10.6461 7.58089 10.6488 7.63265 10.6624 7.68204C10.676 7.73143 10.7002 7.77727 10.7333 7.81636C10.7664 7.85545 10.8077 7.88687 10.8541 7.90842C10.9006 7.92998 10.9512 7.94115 11.0025 7.94118V7.58824ZM3.23777 7.58824V7.23529C3.14416 7.23529 3.05439 7.27248 2.9882 7.33867C2.92201 7.40486 2.88483 7.49463 2.88483 7.58824H3.23777ZM4.64953 15H12.6684V14.2941H4.64953V15ZM13.5154 7.23529H11.0025V7.94118H13.5154V7.23529ZM11.3505 7.64612L11.9194 4.23318L11.2234 4.11671L10.6545 7.53035L11.3505 7.64612ZM10.8754 3H10.7251V3.70588H10.8754V3ZM8.66883 4.10047L6.89283 6.76376L7.48012 7.15553L9.25541 4.49153L8.66812 4.10047M6.01189 7.23529H3.23777V7.94118H6.01189V7.23529ZM2.88483 7.58824V13.2353H3.59071V7.58824H2.88483ZM14.3992 13.5812L15.2462 9.34588L14.5545 9.20753L13.7074 13.4428L14.3992 13.5812ZM6.89283 6.76376C6.79615 6.9088 6.66515 7.02772 6.51148 7.10998C6.3578 7.19224 6.18619 7.23528 6.01189 7.23529V7.94118C6.30237 7.94118 6.58837 7.86948 6.8445 7.73242C7.10062 7.59537 7.31896 7.39721 7.48012 7.15553L6.89283 6.76376ZM11.9194 4.23318C11.9447 4.08151 11.9367 3.92614 11.8959 3.77789C11.8551 3.62963 11.7825 3.49204 11.6832 3.37468C11.5838 3.25732 11.4601 3.16301 11.3206 3.0983C11.1811 3.0336 11.0292 3.00005 10.8754 3V3.70588C10.9267 3.7058 10.9774 3.71691 11.024 3.73841C11.0705 3.75992 11.1118 3.79132 11.145 3.83043C11.1782 3.86953 11.2025 3.9154 11.2162 3.96484C11.2298 4.01428 11.2325 4.06611 11.2241 4.11671L11.9194 4.23318ZM13.5154 7.94118C13.6721 7.94117 13.8268 7.97592 13.9684 8.04292C14.11 8.10992 14.2349 8.20751 14.3343 8.32864C14.4336 8.44978 14.5048 8.59144 14.5427 8.74343C14.5807 8.89541 14.5852 9.05392 14.5545 9.20753L15.2462 9.34588C15.2974 9.08996 15.2904 8.82588 15.2272 8.57266C15.164 8.31944 15.0455 8.0834 14.88 7.88153C14.7146 7.67966 14.5065 7.51699 14.2707 7.40524C14.0348 7.29349 13.7771 7.23545 13.5161 7.23529V7.94118M12.6684 15C13.0764 15.0001 13.4726 14.8587 13.7882 14.6001C14.1037 14.3414 14.3192 13.9813 14.3992 13.5812L13.7074 13.4428C13.6594 13.6831 13.5302 13.8993 13.3406 14.0546C13.151 14.2098 12.9134 14.2945 12.6684 14.2941V15ZM10.7244 3C10.3175 2.99994 9.91693 3.10036 9.55821 3.29234C9.1995 3.48432 8.89375 3.76191 8.66812 4.10047L9.25541 4.49153C9.41658 4.24985 9.63491 4.05169 9.89104 3.91464C10.1472 3.77758 10.4332 3.70588 10.7236 3.70588V3M4.64953 14.2941C4.36872 14.2941 4.0994 14.1826 3.90083 13.984C3.70226 13.7854 3.59071 13.5161 3.59071 13.2353H2.88483C2.88483 13.467 2.93047 13.6965 3.01916 13.9106C3.10784 14.1247 3.23783 14.3193 3.4017 14.4831C3.56557 14.647 3.76011 14.777 3.97421 14.8657C4.18831 14.9544 4.41779 15 4.64953 15V14.2941Z" fill="#4A4A4A"/>
<path d="M6.06128 7.58824V14.6471V7.58824Z" fill="#4A4A4A"/>
<path d="M6.06128 7.58824V14.6471" stroke="#4A4A4A"/>
</svg>
