<svg width="24" height="24" viewBox="0 0 24 24" fill="none" xmlns="http://www.w3.org/2000/svg">
<path d="M19.5345 13.1059V12.8988V11.2586H18.8793V13.2413C18.8793 13.2413 18.8793 13.2413 18.8793 13.2414C18.8794 13.3282 18.9139 13.4115 18.9753 13.4729L18.9753 13.4729L21.2156 15.7132L21.3621 15.8597V16.0668V17.3793V17.8793H20.8621H2.65517H2.15517V17.3793V16.0668V15.8597L2.30162 15.7132L4.54189 13.4729L4.54195 13.4729C4.60336 13.4115 4.63788 13.3282 4.63793 13.2414C4.63793 13.2413 4.63793 13.2413 4.63793 13.2413V9.93154V9.93104H5.13793C5.13562 8.76811 5.44025 7.62516 6.02104 6.61764C6.60183 5.61012 7.43821 4.77371 8.44571 4.19289C9.45321 3.61207 10.5961 3.3074 11.7591 3.30967C12.7332 3.31156 13.6924 3.52875 14.569 3.94287L19.5345 13.1059ZM19.5345 13.1059L19.6809 13.2523L21.9212 15.4926L21.9213 15.4926C21.9827 15.554 22.0172 15.6373 22.0172 15.7241C22.0172 15.7242 22.0172 15.7242 22.0172 15.7242V18.2069C22.0172 18.2938 21.9827 18.3771 21.9213 18.4385C21.8599 18.5 21.7765 18.5345 21.6897 18.5345H15.8966H15.3966V19.0345V19.8621C15.3966 20.8269 15.0133 21.7522 14.331 22.4345C13.6488 23.1167 12.7235 23.5 11.7586 23.5C10.7938 23.5 9.86846 23.1167 9.18622 22.4345C8.50397 21.7522 8.12069 20.8269 8.12069 19.8621V19.0345V18.5345H7.62069H1.82759C1.7407 18.5345 1.65738 18.5 1.59595 18.4385C1.53451 18.3771 1.5 18.2938 1.5 18.2069V15.7242C1.5 15.7242 1.5 15.7242 1.5 15.7241C1.50005 15.6373 1.53457 15.554 1.59598 15.4926L1.59604 15.4926L3.83631 13.2523L3.98276 13.1059V12.8988V9.93129C3.98526 8.00426 4.70216 6.1466 5.99484 4.71746C7.28761 3.28823 9.06441 2.38912 10.9817 2.19398L11.431 2.14824V1.69655V0.5M19.5345 13.1059L11.431 0.5M11.431 0.5H12.0862V1.69738V2.14887L12.5354 2.19479C13.2331 2.26612 13.9173 2.43252 14.569 2.68897V3.39416C13.6848 3.01159 12.7293 2.81156 11.76 2.80967L11.431 0.5ZM9.27586 18.5345H8.77586V19.0345V19.8621C8.77586 20.6531 9.09012 21.4118 9.64949 21.9712C10.2089 22.5306 10.9675 22.8448 11.7586 22.8448C12.5497 22.8448 13.3084 22.5306 13.8677 21.9712C14.4271 21.4118 14.7414 20.6531 14.7414 19.8621V19.0345V18.5345H14.2414H9.27586Z" stroke="#161616"/>
<path d="M3.98276 13.1059V12.8988V11.2586H4.63793V13.2413C4.63793 13.2413 4.63793 13.2413 4.63793 13.2414C4.63788 13.3282 4.60336 13.4115 4.54195 13.4729L4.54189 13.4729L2.30162 15.7132L2.15517 15.8597V16.0668V17.3793V17.8793H2.65517H20.8621H21.3621V17.3793V16.0668V15.8597L21.2156 15.7132L18.9753 13.4729L18.9753 13.4729C18.9139 13.4115 18.8794 13.3282 18.8793 13.2414C18.8793 13.2413 18.8793 13.2413 18.8793 13.2413V9.93154V9.93104H18.3793C18.3816 8.76811 18.077 7.62516 17.4962 6.61764C16.9154 5.61012 16.079 4.77371 15.0715 4.19289C14.064 3.61207 12.9211 3.3074 11.7582 3.30967C10.7841 3.31156 9.82486 3.52875 8.94828 3.94287L3.98276 13.1059ZM3.98276 13.1059L3.83631 13.2523L1.59604 15.4926L1.59598 15.4926C1.53457 15.554 1.50005 15.6373 1.5 15.7241C1.5 15.7242 1.5 15.7242 1.5 15.7242V18.2069C1.5 18.2938 1.53451 18.3771 1.59595 18.4385C1.65738 18.5 1.7407 18.5345 1.82759 18.5345H7.62069H8.12069V19.0345V19.8621C8.12069 20.8269 8.50397 21.7522 9.18622 22.4345C9.86846 23.1167 10.7938 23.5 11.7586 23.5C12.7235 23.5 13.6488 23.1167 14.331 22.4345C15.0133 21.7522 15.3966 20.8269 15.3966 19.8621V19.0345V18.5345H15.8966H21.6897C21.7765 18.5345 21.8599 18.5 21.9213 18.4385C21.9827 18.3771 22.0172 18.2938 22.0172 18.2069V15.7242C22.0172 15.7242 22.0172 15.7242 22.0172 15.7241C22.0172 15.6373 21.9827 15.554 21.9213 15.4926L21.9212 15.4926L19.6809 13.2523L19.5345 13.1059V12.8988V9.93129C19.532 8.00426 18.8151 6.1466 17.5224 4.71746C16.2296 3.28823 14.4528 2.38912 12.5356 2.19398L12.0862 2.14824V1.69655V0.5M3.98276 13.1059L12.0862 0.5M12.0862 0.5H11.431V1.69738V2.14887L10.9819 2.19479C10.2842 2.26612 9.59999 2.43252 8.94828 2.68897V3.39416C9.83243 3.01159 10.788 2.81156 11.7572 2.80967L12.0862 0.5ZM14.2414 18.5345H14.7414V19.0345V19.8621C14.7414 20.6531 14.4271 21.4118 13.8678 21.9712C13.3084 22.5306 12.5497 22.8448 11.7586 22.8448C10.9675 22.8448 10.2089 22.5306 9.64949 21.9712C9.09012 21.4118 8.77586 20.6531 8.77586 19.8621V19.0345V18.5345H9.27586H14.2414Z" stroke="#161616"/>
</svg>
