<svg width="24" height="24" viewBox="0 0 24 24" fill="none" xmlns="http://www.w3.org/2000/svg">
<path d="M9.14417 15.689V7.97791C9.14433 7.88143 9.17043 7.78677 9.21975 7.70385C9.26907 7.62093 9.33978 7.5528 9.42448 7.5066C9.50918 7.4604 9.60475 7.43783 9.70117 7.44126C9.79759 7.44469 9.89131 7.47399 9.97251 7.52608L15.971 11.3806C16.047 11.4292 16.1095 11.4962 16.1528 11.5754C16.196 11.6545 16.2187 11.7433 16.2187 11.8335C16.2187 11.9237 16.196 12.0124 16.1528 12.0916C16.1095 12.1707 16.047 12.2377 15.971 12.2864L9.97251 16.1419C9.89131 16.194 9.79759 16.2233 9.70117 16.2268C9.60475 16.2302 9.50918 16.2076 9.42448 16.1614C9.33978 16.1152 9.26907 16.0471 9.21975 15.9642C9.17043 15.8813 9.14433 15.7866 9.14417 15.6901V15.689Z" fill="white"/>
<path d="M0 11.8335C0 5.29818 5.29818 0 11.8335 0C18.3688 0 23.667 5.29818 23.667 11.8335C23.667 18.3688 18.3688 23.667 11.8335 23.667C5.29818 23.667 0 18.3688 0 11.8335ZM11.8335 1.61366C9.12303 1.61366 6.52357 2.69039 4.60698 4.60698C2.69039 6.52357 1.61366 9.12303 1.61366 11.8335C1.61366 14.544 2.69039 17.1434 4.60698 19.06C6.52357 20.9766 9.12303 22.0533 11.8335 22.0533C14.544 22.0533 17.1434 20.9766 19.06 19.06C20.9766 17.1434 22.0533 14.544 22.0533 11.8335C22.0533 9.12303 20.9766 6.52357 19.06 4.60698C17.1434 2.69039 14.544 1.61366 11.8335 1.61366Z" fill="white"/>
</svg>
