<svg width="30" height="30" viewBox="0 0 30 30" fill="none" xmlns="http://www.w3.org/2000/svg">
<path d="M15 3C8.3724 3 3 8.3724 3 15C3 21.6276 8.3724 27 15 27C21.6276 27 27 21.6276 27 15C27 8.3724 21.6276 3 15 3Z" fill="#06004D" stroke="#06004D" stroke-width="1.5" stroke-linecap="round" stroke-linejoin="round"/>
<path d="M15.0001 15.0006C15.9549 15.0006 16.8706 14.6213 17.5457 13.9462C18.2209 13.2711 18.6001 12.3554 18.6001 11.4006C18.6001 10.4458 18.2209 9.53016 17.5457 8.85503C16.8706 8.1799 15.9549 7.80061 15.0001 7.80061C14.0454 7.80061 13.1297 8.1799 12.4546 8.85503C11.7794 9.53016 11.4001 10.4458 11.4001 11.4006C11.4001 12.3554 11.7794 13.2711 12.4546 13.9462C13.1297 14.6213 14.0454 15.0006 15.0001 15.0006Z" fill="#06004D"/>
<path d="M5.72534 22.6158C5.72534 22.6158 8.40014 19.2006 15.0001 19.2006C21.6001 19.2006 24.2761 22.6158 24.2761 22.6158M15.0001 15.0006C15.9549 15.0006 16.8706 14.6213 17.5457 13.9462C18.2209 13.2711 18.6001 12.3554 18.6001 11.4006C18.6001 10.4458 18.2209 9.53016 17.5457 8.85503C16.8706 8.1799 15.9549 7.80061 15.0001 7.80061C14.0454 7.80061 13.1297 8.1799 12.4546 8.85503C11.7794 9.53016 11.4001 10.4458 11.4001 11.4006C11.4001 12.3554 11.7794 13.2711 12.4546 13.9462C13.1297 14.6213 14.0454 15.0006 15.0001 15.0006Z" stroke="white" stroke-width="1.5" stroke-linecap="round" stroke-linejoin="round"/>
</svg>
