<svg width="30" height="30" viewBox="0 0 30 30" fill="none" xmlns="http://www.w3.org/2000/svg">
<path d="M15 4C8.9247 4 4 8.9247 4 15C4 21.0753 8.9247 26 15 26C21.0753 26 26 21.0753 26 15C26 8.9247 21.0753 4 15 4Z" stroke="#161616" stroke-width="1.5" stroke-linecap="round" stroke-linejoin="round"/>
<path d="M6.49805 21.981C6.49805 21.981 8.94995 18.8504 14.9999 18.8504C21.0499 18.8504 23.5029 21.981 23.5029 21.981M14.9999 15.0004C15.8752 15.0004 16.7145 14.6527 17.3334 14.0338C17.9523 13.415 18.2999 12.5756 18.2999 11.7004C18.2999 10.8252 17.9523 9.98581 17.3334 9.36694C16.7145 8.74807 15.8752 8.40039 14.9999 8.40039C14.1247 8.40039 13.2854 8.74807 12.6665 9.36694C12.0476 9.98581 11.6999 10.8252 11.6999 11.7004C11.6999 12.5756 12.0476 13.415 12.6665 14.0338C13.2854 14.6527 14.1247 15.0004 14.9999 15.0004Z" stroke="#161616" stroke-width="1.5" stroke-linecap="round" stroke-linejoin="round"/>
</svg>
