<svg width="114" height="122" viewBox="0 0 114 122" fill="none" xmlns="http://www.w3.org/2000/svg">
<path d="M95.6786 92.8984C98.4777 94.2963 101.001 96.0119 103.249 98.0452C105.497 100.078 107.405 102.345 108.974 104.844C110.544 107.343 111.773 110.054 112.664 112.977C113.555 115.9 114 118.908 114 122H105.857C105.857 118.654 105.221 115.498 103.949 112.532C102.676 109.567 100.938 106.983 98.7321 104.78C96.5268 102.578 93.9185 100.82 90.9074 99.5066C87.8962 98.1934 84.7366 97.558 81.4286 97.6004C78.0357 97.6004 74.8761 98.2358 71.9498 99.5066C69.0234 100.777 66.4364 102.514 64.1886 104.717C61.9409 106.92 60.1808 109.525 58.9085 112.532C57.6362 115.54 57 118.696 57 122H48.8571C48.8571 118.908 49.2813 115.9 50.1295 112.977C50.9777 110.054 52.2076 107.343 53.8192 104.844C55.4308 102.345 57.3605 100.078 59.6083 98.0452C61.856 96.0119 64.3795 94.2963 67.1786 92.8984C63.9978 90.6109 61.5167 87.7516 59.7355 84.3204C57.9542 80.8892 57.0424 77.1827 57 73.2008C57 69.8543 56.3638 66.6985 55.0915 63.7332C53.8192 60.768 52.0804 58.184 49.875 55.9813C47.6696 53.7785 45.0614 52.0206 42.0502 50.7074C39.0391 49.3942 35.8795 48.7588 32.5714 48.8012C29.1786 48.8012 26.019 49.4366 23.0926 50.7074C20.1663 51.9782 17.5792 53.715 15.3315 55.9177C13.0837 58.1205 11.3237 60.7256 10.0513 63.7332C8.77902 66.7408 8.14286 69.8967 8.14286 73.2008H0C0 70.1085 0.424107 67.1009 1.27232 64.178C2.12054 61.2552 3.35045 58.5441 4.96205 56.0448C6.57366 53.5456 8.50335 51.2793 10.7511 49.246C12.9989 47.2127 15.5223 45.4971 18.3214 44.0992C15.1406 41.8117 12.6596 38.9524 10.8783 35.5212C9.0971 32.09 8.18527 28.3835 8.14286 24.4016C8.14286 21.0551 8.77902 17.8993 10.0513 14.934C11.3237 11.9688 13.0625 9.38482 15.2679 7.18208C17.4732 4.97933 20.0603 3.22138 23.029 1.9082C25.9978 0.595032 29.1786 -0.0403748 32.5714 0.00198564C35.9219 0.00198564 39.0815 0.637392 42.0502 1.9082C45.019 3.17902 47.606 4.91579 49.8114 7.11854C52.0167 9.32128 53.7768 11.9264 55.0915 14.934C56.4063 17.9416 57.0424 21.0975 57 24.4016C57 28.3835 56.1094 32.09 54.3281 35.5212C52.5469 38.9524 50.0446 41.8117 46.8214 44.0992C50.0446 45.7089 52.9286 47.7845 55.4732 50.3262C58.0179 52.8678 60.096 55.7483 61.7076 58.9677C63.9978 55.7907 66.8605 53.3126 70.2958 51.5334C73.731 49.7543 77.442 48.8436 81.4286 48.8012C84.779 48.8012 87.9386 49.4366 90.9074 50.7074C93.8761 51.9782 96.4632 53.715 98.6685 55.9177C100.874 58.1205 102.634 60.7256 103.949 63.7332C105.263 66.7408 105.9 69.8967 105.857 73.2008C105.857 77.1827 104.967 80.8892 103.185 84.3204C101.404 87.7516 98.9018 90.6109 95.6786 92.8984ZM32.5714 40.668C34.8192 40.668 36.9185 40.2444 38.8694 39.3972C40.8203 38.55 42.5592 37.3851 44.0859 35.9024C45.6127 34.4198 46.779 32.7042 47.5848 30.7557C48.3906 28.8071 48.8147 26.6891 48.8571 24.4016C48.8571 22.1565 48.433 20.0596 47.5848 18.1111C46.7366 16.1625 45.5703 14.4257 44.0859 12.9007C42.6016 11.3758 40.8839 10.2108 38.933 9.406C36.9821 8.60115 34.8616 8.17755 32.5714 8.13519C30.3237 8.13519 28.2243 8.55879 26.2734 9.406C24.3225 10.2532 22.5837 11.4181 21.0569 12.9007C19.5301 14.3833 18.3638 16.0989 17.558 18.0475C16.7522 19.9961 16.3281 22.1141 16.2857 24.4016C16.2857 26.6467 16.7098 28.7435 17.558 30.6921C18.4062 32.6407 19.5725 34.3775 21.0569 35.9024C22.5413 37.4274 24.2589 38.5923 26.2098 39.3972C28.1607 40.202 30.2813 40.6256 32.5714 40.668ZM81.4286 89.4672C83.6763 89.4672 85.7757 89.0436 87.7266 88.1964C89.6775 87.3492 91.4163 86.1843 92.9431 84.7016C94.4699 83.219 95.6362 81.5034 96.442 79.5549C97.2478 77.6063 97.6719 75.4883 97.7143 73.2008C97.7143 70.9557 97.2902 68.8588 96.442 66.9103C95.5938 64.9617 94.4275 63.2249 92.9431 61.6999C91.4587 60.175 89.7411 59.0101 87.7902 58.2052C85.8393 57.4004 83.7188 56.9767 81.4286 56.9344C79.1808 56.9344 77.0815 57.358 75.1306 58.2052C73.1797 59.0524 71.4408 60.2173 69.9141 61.6999C68.3873 63.1826 67.221 64.8981 66.4152 66.8467C65.6094 68.7953 65.1853 70.9133 65.1429 73.2008C65.1429 75.4459 65.567 77.5427 66.4152 79.4913C67.2634 81.4399 68.4297 83.1767 69.9141 84.7016C71.3984 86.2266 73.1161 87.3915 75.067 88.1964C77.0179 89.0012 79.1384 89.4248 81.4286 89.4672ZM89.5714 16.2684H65.1429V8.13519H97.7143V40.668H89.5714V16.2684Z" fill="#06004D"/>
</svg>
