<svg width="177" height="36" viewBox="0 0 177 36" fill="none" xmlns="http://www.w3.org/2000/svg">
<path d="M6.47288 14.84H7.98488C8.59288 14.84 9.09688 14.76 9.49688 14.6C9.89688 14.424 10.2409 14.152 10.5289 13.784L20.1049 1.664C20.5049 1.152 20.9209 0.799997 21.3529 0.607998C21.8009 0.399998 22.3609 0.295998 23.0329 0.295998H28.6009L16.9129 14.72C16.5449 15.168 16.1929 15.544 15.8569 15.848C15.5209 16.152 15.1609 16.4 14.7769 16.592C15.3049 16.784 15.7769 17.056 16.1929 17.408C16.6249 17.76 17.0409 18.208 17.4409 18.752L29.4889 35H23.7769C23.0089 35 22.4329 34.896 22.0489 34.688C21.6809 34.464 21.3689 34.144 21.1129 33.728L11.2969 20.912C10.9769 20.496 10.6169 20.2 10.2169 20.024C9.81688 19.832 9.24888 19.736 8.51288 19.736H6.47288V35H0.016875V0.271999H6.47288V14.84ZM42.4613 9.992C44.3013 9.992 45.9653 10.288 47.4533 10.88C48.9573 11.472 50.2373 12.312 51.2933 13.4C52.3493 14.488 53.1653 15.816 53.7413 17.384C54.3173 18.952 54.6053 20.704 54.6053 22.64C54.6053 24.592 54.3173 26.352 53.7413 27.92C53.1653 29.488 52.3493 30.824 51.2933 31.928C50.2373 33.032 48.9573 33.88 47.4533 34.472C45.9653 35.064 44.3013 35.36 42.4613 35.36C40.6213 35.36 38.9493 35.064 37.4453 34.472C35.9413 33.88 34.6533 33.032 33.5813 31.928C32.5253 30.824 31.7013 29.488 31.1093 27.92C30.5333 26.352 30.2453 24.592 30.2453 22.64C30.2453 20.704 30.5333 18.952 31.1093 17.384C31.7013 15.816 32.5253 14.488 33.5813 13.4C34.6533 12.312 35.9413 11.472 37.4453 10.88C38.9493 10.288 40.6213 9.992 42.4613 9.992ZM42.4613 30.8C44.5093 30.8 46.0213 30.112 46.9973 28.736C47.9893 27.36 48.4853 25.344 48.4853 22.688C48.4853 20.032 47.9893 18.008 46.9973 16.616C46.0213 15.224 44.5093 14.528 42.4613 14.528C40.3813 14.528 38.8453 15.232 37.8533 16.64C36.8613 18.032 36.3653 20.048 36.3653 22.688C36.3653 25.328 36.8613 27.344 37.8533 28.736C38.8453 30.112 40.3813 30.8 42.4613 30.8ZM59.2305 35V10.376H62.8545C63.6225 10.376 64.1265 10.736 64.3665 11.456L64.7745 13.4C65.2705 12.888 65.7905 12.424 66.3345 12.008C66.8945 11.592 67.4785 11.232 68.0865 10.928C68.7105 10.624 69.3745 10.392 70.0785 10.232C70.7825 10.072 71.5505 9.992 72.3825 9.992C73.7265 9.992 74.9185 10.224 75.9585 10.688C76.9985 11.136 77.8625 11.776 78.5505 12.608C79.2545 13.424 79.7825 14.408 80.1345 15.56C80.5025 16.696 80.6865 17.952 80.6865 19.328V35H74.7585V19.328C74.7585 17.824 74.4065 16.664 73.7025 15.848C73.0145 15.016 71.9745 14.6 70.5825 14.6C69.5585 14.6 68.5985 14.832 67.7025 15.296C66.8065 15.76 65.9585 16.392 65.1585 17.192V35H59.2305ZM86.5117 35V10.376H90.1358C90.9038 10.376 91.4078 10.736 91.6478 11.456L92.0558 13.4C92.5518 12.888 93.0718 12.424 93.6158 12.008C94.1758 11.592 94.7598 11.232 95.3678 10.928C95.9918 10.624 96.6558 10.392 97.3598 10.232C98.0638 10.072 98.8318 9.992 99.6638 9.992C101.008 9.992 102.2 10.224 103.24 10.688C104.28 11.136 105.144 11.776 105.832 12.608C106.536 13.424 107.064 14.408 107.416 15.56C107.784 16.696 107.968 17.952 107.968 19.328V35H102.04V19.328C102.04 17.824 101.688 16.664 100.984 15.848C100.296 15.016 99.2558 14.6 97.8638 14.6C96.8398 14.6 95.8798 14.832 94.9838 15.296C94.0878 15.76 93.2398 16.392 92.4398 17.192V35H86.5117ZM123.969 9.992C125.521 9.992 126.945 10.24 128.241 10.736C129.553 11.232 130.681 11.96 131.625 12.92C132.569 13.864 133.305 15.032 133.833 16.424C134.361 17.8 134.625 19.376 134.625 21.152C134.625 21.6 134.601 21.976 134.553 22.28C134.521 22.568 134.449 22.8 134.337 22.976C134.241 23.136 134.105 23.256 133.929 23.336C133.753 23.4 133.529 23.432 133.257 23.432H118.041C118.217 25.96 118.897 27.816 120.081 29C121.265 30.184 122.833 30.776 124.785 30.776C125.745 30.776 126.569 30.664 127.257 30.44C127.961 30.216 128.569 29.968 129.081 29.696C129.609 29.424 130.065 29.176 130.449 28.952C130.849 28.728 131.233 28.616 131.601 28.616C131.841 28.616 132.049 28.664 132.225 28.76C132.401 28.856 132.553 28.992 132.681 29.168L134.409 31.328C133.753 32.096 133.017 32.744 132.201 33.272C131.385 33.784 130.529 34.2 129.633 34.52C128.753 34.824 127.849 35.04 126.921 35.168C126.009 35.296 125.121 35.36 124.257 35.36C122.545 35.36 120.953 35.08 119.481 34.52C118.009 33.944 116.729 33.104 115.641 32C114.553 30.88 113.697 29.504 113.073 27.872C112.449 26.224 112.137 24.32 112.137 22.16C112.137 20.48 112.409 18.904 112.953 17.432C113.497 15.944 114.273 14.656 115.281 13.568C116.305 12.464 117.545 11.592 119.001 10.952C120.473 10.312 122.129 9.992 123.969 9.992ZM124.089 14.24C122.361 14.24 121.009 14.728 120.033 15.704C119.057 16.68 118.433 18.064 118.161 19.856H129.297C129.297 19.088 129.193 18.368 128.985 17.696C128.777 17.008 128.457 16.408 128.025 15.896C127.593 15.384 127.049 14.984 126.393 14.696C125.737 14.392 124.969 14.24 124.089 14.24ZM156.738 15.584C156.562 15.808 156.386 15.984 156.21 16.112C156.05 16.24 155.81 16.304 155.49 16.304C155.186 16.304 154.89 16.216 154.602 16.04C154.314 15.848 153.97 15.64 153.57 15.416C153.17 15.176 152.69 14.968 152.13 14.792C151.586 14.6 150.906 14.504 150.09 14.504C149.05 14.504 148.138 14.696 147.354 15.08C146.57 15.448 145.914 15.984 145.386 16.688C144.874 17.392 144.49 18.248 144.234 19.256C143.978 20.248 143.85 21.376 143.85 22.64C143.85 23.952 143.986 25.12 144.258 26.144C144.546 27.168 144.954 28.032 145.482 28.736C146.01 29.424 146.65 29.952 147.402 30.32C148.154 30.672 149.002 30.848 149.946 30.848C150.89 30.848 151.65 30.736 152.226 30.512C152.818 30.272 153.314 30.016 153.714 29.744C154.114 29.456 154.458 29.2 154.746 28.976C155.05 28.736 155.386 28.616 155.754 28.616C156.234 28.616 156.594 28.8 156.834 29.168L158.538 31.328C157.882 32.096 157.17 32.744 156.402 33.272C155.634 33.784 154.834 34.2 154.002 34.52C153.186 34.824 152.338 35.04 151.458 35.168C150.578 35.296 149.706 35.36 148.842 35.36C147.322 35.36 145.89 35.08 144.546 34.52C143.202 33.944 142.026 33.112 141.018 32.024C140.026 30.936 139.234 29.608 138.642 28.04C138.066 26.456 137.778 24.656 137.778 22.64C137.778 20.832 138.034 19.16 138.546 17.624C139.074 16.072 139.842 14.736 140.85 13.616C141.858 12.48 143.106 11.592 144.594 10.952C146.082 10.312 147.794 9.992 149.73 9.992C151.57 9.992 153.178 10.288 154.554 10.88C155.946 11.472 157.194 12.32 158.298 13.424L156.738 15.584ZM170.397 35.384C168.269 35.384 166.629 34.784 165.477 33.584C164.325 32.368 163.749 30.696 163.749 28.568V14.816H161.253C160.933 14.816 160.653 14.712 160.413 14.504C160.189 14.296 160.077 13.984 160.077 13.568V11.216L164.037 10.568L165.285 3.848C165.349 3.528 165.493 3.28 165.717 3.104C165.957 2.928 166.253 2.84 166.605 2.84H169.677V10.592H176.157V14.816H169.677V28.16C169.677 28.928 169.869 29.528 170.253 29.96C170.637 30.392 171.149 30.608 171.789 30.608C172.157 30.608 172.461 30.568 172.701 30.488C172.957 30.392 173.173 30.296 173.349 30.2C173.541 30.104 173.709 30.016 173.853 29.936C173.997 29.84 174.141 29.792 174.285 29.792C174.461 29.792 174.605 29.84 174.717 29.936C174.829 30.016 174.949 30.144 175.077 30.32L176.853 33.2C175.989 33.92 174.997 34.464 173.877 34.832C172.757 35.2 171.597 35.384 170.397 35.384Z" fill="#06004D"/>
</svg>
