<svg width="91" height="114" viewBox="0 0 91 114" fill="none" xmlns="http://www.w3.org/2000/svg">
<path d="M15.8005 50.405H21.5675C23.5689 50.405 25.1489 50.168 26.3075 49.694C27.5189 49.1673 28.6512 48.2983 29.7045 47.087L67.3875 4.42699C68.5462 3.11033 69.6522 2.18866 70.7055 1.662C71.8115 1.08266 73.2072 0.792993 74.8925 0.792993H87.9275L44.7935 49.536C43.6875 50.7473 42.6342 51.7743 41.6335 52.617C40.6855 53.4597 39.6585 54.1443 38.5525 54.671C40.0272 55.145 41.3175 55.856 42.4235 56.804C43.5295 57.752 44.6882 58.937 45.8995 60.359L90.9295 114H77.6575C76.6569 114 75.8142 113.921 75.1295 113.763C74.4449 113.605 73.8392 113.394 73.3125 113.131C72.8385 112.868 72.3909 112.525 71.9695 112.104C71.5482 111.683 71.1269 111.235 70.7055 110.761L31.6005 65.81C31.0212 65.178 30.4682 64.6513 29.9415 64.23C29.4675 63.756 28.8882 63.361 28.2035 63.045C27.5715 62.729 26.8079 62.5183 25.9125 62.413C25.0699 62.255 24.0165 62.176 22.7525 62.176H15.8005V114H0.55354V0.792993H15.8005V50.405Z" fill="#06004D"/>
</svg>
